<mxfile host="Electron" agent="Mozilla/5.0 (Macintosh; Intel Mac OS X 10_15_7) AppleWebKit/537.36 (KHTML, like Gecko) draw.io/24.7.17 Chrome/128.0.6613.36 Electron/32.0.1 Safari/537.36" version="24.7.17">
  <diagram name="PÃ gina-1" id="EiEdiK48u3Qb4cZ-e7ze">
    <mxGraphModel dx="1266" dy="772" grid="1" gridSize="10" guides="1" tooltips="1" connect="1" arrows="1" fold="1" page="1" pageScale="1" pageWidth="1169" pageHeight="827" math="0" shadow="0">
      <root>
        <mxCell id="0" />
        <mxCell id="1" parent="0" />
        <mxCell id="iIZ1Hgpg9Qb0fUDsrSR7-101" style="edgeStyle=orthogonalEdgeStyle;rounded=0;orthogonalLoop=1;jettySize=auto;html=1;" parent="1" source="iIZ1Hgpg9Qb0fUDsrSR7-12" target="iIZ1Hgpg9Qb0fUDsrSR7-41" edge="1">
          <mxGeometry relative="1" as="geometry" />
        </mxCell>
        <mxCell id="iIZ1Hgpg9Qb0fUDsrSR7-102" value="mailbox" style="edgeLabel;html=1;align=center;verticalAlign=middle;resizable=0;points=[];" parent="iIZ1Hgpg9Qb0fUDsrSR7-101" vertex="1" connectable="0">
          <mxGeometry x="0.25" relative="1" as="geometry">
            <mxPoint as="offset" />
          </mxGeometry>
        </mxCell>
        <mxCell id="iIZ1Hgpg9Qb0fUDsrSR7-12" value="Ana Andromena" style="strokeWidth=2;html=1;shape=mxgraph.flowchart.start_2;whiteSpace=wrap;strokeColor=#3333FF;" parent="1" vertex="1">
          <mxGeometry x="320" y="125" width="90" height="90" as="geometry" />
        </mxCell>
        <mxCell id="iIZ1Hgpg9Qb0fUDsrSR7-15" value="Person" style="ellipse;whiteSpace=wrap;html=1;aspect=fixed;" parent="1" vertex="1">
          <mxGeometry x="370" y="10" width="60" height="60" as="geometry" />
        </mxCell>
        <mxCell id="iIZ1Hgpg9Qb0fUDsrSR7-16" value="Location" style="ellipse;whiteSpace=wrap;html=1;aspect=fixed;" parent="1" vertex="1">
          <mxGeometry x="660" y="10" width="60" height="60" as="geometry" />
        </mxCell>
        <mxCell id="iIZ1Hgpg9Qb0fUDsrSR7-17" value="&lt;div&gt;Identifier&lt;/div&gt;" style="ellipse;whiteSpace=wrap;html=1;aspect=fixed;" parent="1" vertex="1">
          <mxGeometry x="60" y="30" width="60" height="60" as="geometry" />
        </mxCell>
        <mxCell id="iIZ1Hgpg9Qb0fUDsrSR7-18" value="&lt;div&gt;LegalIdentifier&lt;/div&gt;" style="ellipse;whiteSpace=wrap;html=1;aspect=fixed;" parent="1" vertex="1">
          <mxGeometry x="50" y="110" width="60" height="60" as="geometry" />
        </mxCell>
        <mxCell id="iIZ1Hgpg9Qb0fUDsrSR7-22" style="edgeStyle=orthogonalEdgeStyle;rounded=0;orthogonalLoop=1;jettySize=auto;html=1;entryX=0.5;entryY=1;entryDx=0;entryDy=0;" parent="1" source="iIZ1Hgpg9Qb0fUDsrSR7-19" target="iIZ1Hgpg9Qb0fUDsrSR7-20" edge="1">
          <mxGeometry relative="1" as="geometry" />
        </mxCell>
        <mxCell id="iIZ1Hgpg9Qb0fUDsrSR7-23" value="is" style="edgeLabel;html=1;align=center;verticalAlign=middle;resizable=0;points=[];" parent="iIZ1Hgpg9Qb0fUDsrSR7-22" vertex="1" connectable="0">
          <mxGeometry x="0.0824" y="2" relative="1" as="geometry">
            <mxPoint as="offset" />
          </mxGeometry>
        </mxCell>
        <mxCell id="iIZ1Hgpg9Qb0fUDsrSR7-19" value="87654321" style="strokeWidth=2;html=1;shape=mxgraph.flowchart.start_2;whiteSpace=wrap;strokeColor=#3333FF;" parent="1" vertex="1">
          <mxGeometry x="170" y="130" width="80" height="80" as="geometry" />
        </mxCell>
        <mxCell id="iIZ1Hgpg9Qb0fUDsrSR7-52" style="edgeStyle=orthogonalEdgeStyle;rounded=0;orthogonalLoop=1;jettySize=auto;html=1;entryX=1;entryY=0.5;entryDx=0;entryDy=0;" parent="1" source="iIZ1Hgpg9Qb0fUDsrSR7-20" target="iIZ1Hgpg9Qb0fUDsrSR7-17" edge="1">
          <mxGeometry relative="1" as="geometry" />
        </mxCell>
        <mxCell id="iIZ1Hgpg9Qb0fUDsrSR7-53" value="is" style="edgeLabel;html=1;align=center;verticalAlign=middle;resizable=0;points=[];" parent="iIZ1Hgpg9Qb0fUDsrSR7-52" vertex="1" connectable="0">
          <mxGeometry x="0.2706" relative="1" as="geometry">
            <mxPoint as="offset" />
          </mxGeometry>
        </mxCell>
        <mxCell id="iIZ1Hgpg9Qb0fUDsrSR7-20" value="&lt;div&gt;Student Card&lt;/div&gt;" style="ellipse;whiteSpace=wrap;html=1;aspect=fixed;" parent="1" vertex="1">
          <mxGeometry x="180" y="30" width="60" height="60" as="geometry" />
        </mxCell>
        <mxCell id="iIZ1Hgpg9Qb0fUDsrSR7-21" value="&lt;div&gt;National ID&lt;/div&gt;" style="ellipse;whiteSpace=wrap;html=1;aspect=fixed;" parent="1" vertex="1">
          <mxGeometry x="50" y="230" width="60" height="60" as="geometry" />
        </mxCell>
        <mxCell id="iIZ1Hgpg9Qb0fUDsrSR7-27" style="edgeStyle=orthogonalEdgeStyle;rounded=0;orthogonalLoop=1;jettySize=auto;html=1;entryX=0.713;entryY=0.925;entryDx=0;entryDy=0;entryPerimeter=0;" parent="1" source="iIZ1Hgpg9Qb0fUDsrSR7-21" target="iIZ1Hgpg9Qb0fUDsrSR7-18" edge="1">
          <mxGeometry relative="1" as="geometry" />
        </mxCell>
        <mxCell id="iIZ1Hgpg9Qb0fUDsrSR7-28" value="is" style="edgeLabel;html=1;align=center;verticalAlign=middle;resizable=0;points=[];" parent="iIZ1Hgpg9Qb0fUDsrSR7-27" vertex="1" connectable="0">
          <mxGeometry x="-0.0787" relative="1" as="geometry">
            <mxPoint as="offset" />
          </mxGeometry>
        </mxCell>
        <mxCell id="iIZ1Hgpg9Qb0fUDsrSR7-29" value="IT-12345678" style="strokeWidth=2;html=1;shape=mxgraph.flowchart.start_2;whiteSpace=wrap;strokeColor=#3333FF;" parent="1" vertex="1">
          <mxGeometry x="150" y="230" width="80" height="80" as="geometry" />
        </mxCell>
        <mxCell id="iIZ1Hgpg9Qb0fUDsrSR7-30" style="edgeStyle=orthogonalEdgeStyle;rounded=0;orthogonalLoop=1;jettySize=auto;html=1;entryX=0.613;entryY=0.95;entryDx=0;entryDy=0;entryPerimeter=0;" parent="1" source="iIZ1Hgpg9Qb0fUDsrSR7-29" target="iIZ1Hgpg9Qb0fUDsrSR7-21" edge="1">
          <mxGeometry relative="1" as="geometry" />
        </mxCell>
        <mxCell id="iIZ1Hgpg9Qb0fUDsrSR7-31" value="is" style="edgeLabel;html=1;align=center;verticalAlign=middle;resizable=0;points=[];" parent="iIZ1Hgpg9Qb0fUDsrSR7-30" vertex="1" connectable="0">
          <mxGeometry x="-0.3115" y="-1" relative="1" as="geometry">
            <mxPoint as="offset" />
          </mxGeometry>
        </mxCell>
        <mxCell id="iIZ1Hgpg9Qb0fUDsrSR7-32" style="edgeStyle=orthogonalEdgeStyle;rounded=0;orthogonalLoop=1;jettySize=auto;html=1;entryX=0.363;entryY=0.925;entryDx=0;entryDy=0;entryPerimeter=0;" parent="1" source="iIZ1Hgpg9Qb0fUDsrSR7-12" target="iIZ1Hgpg9Qb0fUDsrSR7-15" edge="1">
          <mxGeometry relative="1" as="geometry" />
        </mxCell>
        <mxCell id="iIZ1Hgpg9Qb0fUDsrSR7-33" value="is" style="edgeLabel;html=1;align=center;verticalAlign=middle;resizable=0;points=[];" parent="iIZ1Hgpg9Qb0fUDsrSR7-32" vertex="1" connectable="0">
          <mxGeometry x="-0.104" y="1" relative="1" as="geometry">
            <mxPoint as="offset" />
          </mxGeometry>
        </mxCell>
        <mxCell id="iIZ1Hgpg9Qb0fUDsrSR7-34" style="edgeStyle=orthogonalEdgeStyle;rounded=0;orthogonalLoop=1;jettySize=auto;html=1;entryX=1;entryY=0.5;entryDx=0;entryDy=0;entryPerimeter=0;" parent="1" source="iIZ1Hgpg9Qb0fUDsrSR7-12" target="iIZ1Hgpg9Qb0fUDsrSR7-19" edge="1">
          <mxGeometry relative="1" as="geometry" />
        </mxCell>
        <mxCell id="iIZ1Hgpg9Qb0fUDsrSR7-35" value="has" style="edgeLabel;html=1;align=center;verticalAlign=middle;resizable=0;points=[];" parent="iIZ1Hgpg9Qb0fUDsrSR7-34" vertex="1" connectable="0">
          <mxGeometry x="0.2167" y="-1" relative="1" as="geometry">
            <mxPoint as="offset" />
          </mxGeometry>
        </mxCell>
        <mxCell id="iIZ1Hgpg9Qb0fUDsrSR7-38" value="&lt;span style=&quot;text-wrap: nowrap;&quot;&gt;Via da Vinci,&amp;nbsp;&lt;/span&gt;&lt;div&gt;&lt;span style=&quot;text-wrap: nowrap;&quot;&gt;12&lt;/span&gt;&lt;/div&gt;" style="strokeWidth=2;html=1;shape=mxgraph.flowchart.start_2;whiteSpace=wrap;strokeColor=#3333FF;aspect=fixed;" parent="1" vertex="1">
          <mxGeometry x="500" y="120" width="80" height="80" as="geometry" />
        </mxCell>
        <mxCell id="iIZ1Hgpg9Qb0fUDsrSR7-39" style="edgeStyle=orthogonalEdgeStyle;rounded=0;orthogonalLoop=1;jettySize=auto;html=1;entryX=0;entryY=0.6;entryDx=0;entryDy=0;entryPerimeter=0;" parent="1" source="iIZ1Hgpg9Qb0fUDsrSR7-12" target="iIZ1Hgpg9Qb0fUDsrSR7-38" edge="1">
          <mxGeometry relative="1" as="geometry" />
        </mxCell>
        <mxCell id="iIZ1Hgpg9Qb0fUDsrSR7-40" value="lives" style="edgeLabel;html=1;align=center;verticalAlign=middle;resizable=0;points=[];" parent="iIZ1Hgpg9Qb0fUDsrSR7-39" vertex="1" connectable="0">
          <mxGeometry x="-0.04" y="2" relative="1" as="geometry">
            <mxPoint as="offset" />
          </mxGeometry>
        </mxCell>
        <mxCell id="iIZ1Hgpg9Qb0fUDsrSR7-41" value="&lt;span style=&quot;text-wrap: nowrap;&quot;&gt;ana.andromeda&lt;/span&gt;&lt;div&gt;&lt;span style=&quot;text-wrap: nowrap;&quot;&gt;@&lt;/span&gt;&lt;/div&gt;&lt;div&gt;&lt;span style=&quot;text-wrap: nowrap;&quot;&gt;email.com&lt;/span&gt;&lt;/div&gt;" style="strokeWidth=2;html=1;shape=mxgraph.flowchart.start_2;whiteSpace=wrap;strokeColor=#3333FF;" parent="1" vertex="1">
          <mxGeometry x="255" y="270" width="90" height="90" as="geometry" />
        </mxCell>
        <mxCell id="iIZ1Hgpg9Qb0fUDsrSR7-42" value="&lt;span style=&quot;text-wrap: nowrap;&quot;&gt;Rome&lt;/span&gt;" style="strokeWidth=2;html=1;shape=mxgraph.flowchart.start_2;whiteSpace=wrap;strokeColor=#3333FF;aspect=fixed;" parent="1" vertex="1">
          <mxGeometry x="495" y="10" width="70" height="70" as="geometry" />
        </mxCell>
        <mxCell id="iIZ1Hgpg9Qb0fUDsrSR7-43" style="edgeStyle=orthogonalEdgeStyle;rounded=0;orthogonalLoop=1;jettySize=auto;html=1;entryX=0;entryY=0.5;entryDx=0;entryDy=0;" parent="1" source="iIZ1Hgpg9Qb0fUDsrSR7-42" target="iIZ1Hgpg9Qb0fUDsrSR7-16" edge="1">
          <mxGeometry relative="1" as="geometry" />
        </mxCell>
        <mxCell id="iIZ1Hgpg9Qb0fUDsrSR7-44" value="is" style="edgeLabel;html=1;align=center;verticalAlign=middle;resizable=0;points=[];" parent="iIZ1Hgpg9Qb0fUDsrSR7-43" vertex="1" connectable="0">
          <mxGeometry x="0.3115" y="1" relative="1" as="geometry">
            <mxPoint as="offset" />
          </mxGeometry>
        </mxCell>
        <mxCell id="iIZ1Hgpg9Qb0fUDsrSR7-45" style="edgeStyle=orthogonalEdgeStyle;rounded=0;orthogonalLoop=1;jettySize=auto;html=1;entryX=0.855;entryY=0.855;entryDx=0;entryDy=0;entryPerimeter=0;" parent="1" source="iIZ1Hgpg9Qb0fUDsrSR7-38" target="iIZ1Hgpg9Qb0fUDsrSR7-42" edge="1">
          <mxGeometry relative="1" as="geometry" />
        </mxCell>
        <mxCell id="iIZ1Hgpg9Qb0fUDsrSR7-46" value="city" style="edgeLabel;html=1;align=center;verticalAlign=middle;resizable=0;points=[];" parent="iIZ1Hgpg9Qb0fUDsrSR7-45" vertex="1" connectable="0">
          <mxGeometry x="-0.06" relative="1" as="geometry">
            <mxPoint as="offset" />
          </mxGeometry>
        </mxCell>
        <mxCell id="iIZ1Hgpg9Qb0fUDsrSR7-50" style="edgeStyle=orthogonalEdgeStyle;rounded=0;orthogonalLoop=1;jettySize=auto;html=1;exitX=0.855;exitY=0.145;exitDx=0;exitDy=0;exitPerimeter=0;entryX=0.11;entryY=0.79;entryDx=0;entryDy=0;entryPerimeter=0;" parent="1" source="iIZ1Hgpg9Qb0fUDsrSR7-12" target="iIZ1Hgpg9Qb0fUDsrSR7-42" edge="1">
          <mxGeometry relative="1" as="geometry">
            <Array as="points">
              <mxPoint x="397" y="120" />
              <mxPoint x="503" y="120" />
            </Array>
          </mxGeometry>
        </mxCell>
        <mxCell id="iIZ1Hgpg9Qb0fUDsrSR7-51" value="placeOfBirth" style="edgeLabel;html=1;align=center;verticalAlign=middle;resizable=0;points=[];" parent="iIZ1Hgpg9Qb0fUDsrSR7-50" vertex="1" connectable="0">
          <mxGeometry x="-0.3306" y="5" relative="1" as="geometry">
            <mxPoint x="1" y="1" as="offset" />
          </mxGeometry>
        </mxCell>
        <mxCell id="iIZ1Hgpg9Qb0fUDsrSR7-54" value="&lt;div&gt;Learning&lt;/div&gt;&lt;div&gt;Achievement&lt;/div&gt;" style="ellipse;whiteSpace=wrap;html=1;aspect=fixed;" parent="1" vertex="1">
          <mxGeometry x="680" y="250" width="60" height="60" as="geometry" />
        </mxCell>
        <mxCell id="iIZ1Hgpg9Qb0fUDsrSR7-56" style="edgeStyle=orthogonalEdgeStyle;rounded=0;orthogonalLoop=1;jettySize=auto;html=1;entryX=0.5;entryY=1;entryDx=0;entryDy=0;" parent="1" source="iIZ1Hgpg9Qb0fUDsrSR7-55" target="iIZ1Hgpg9Qb0fUDsrSR7-54" edge="1">
          <mxGeometry relative="1" as="geometry" />
        </mxCell>
        <mxCell id="iIZ1Hgpg9Qb0fUDsrSR7-57" value="is" style="edgeLabel;html=1;align=center;verticalAlign=middle;resizable=0;points=[];" parent="iIZ1Hgpg9Qb0fUDsrSR7-56" vertex="1" connectable="0">
          <mxGeometry x="-0.04" relative="1" as="geometry">
            <mxPoint x="260" y="10" as="offset" />
          </mxGeometry>
        </mxCell>
        <mxCell id="iIZ1Hgpg9Qb0fUDsrSR7-55" value="&lt;span style=&quot;text-wrap: nowrap;&quot;&gt;Digital&lt;/span&gt;&lt;div&gt;&lt;span style=&quot;text-wrap: nowrap;&quot;&gt;micro-credential&lt;/span&gt;&lt;div&gt;&lt;span style=&quot;text-wrap: nowrap;&quot;&gt;creation&lt;/span&gt;&lt;/div&gt;&lt;/div&gt;" style="strokeWidth=2;html=1;shape=mxgraph.flowchart.start_2;whiteSpace=wrap;strokeColor=#3333FF;" parent="1" vertex="1">
          <mxGeometry x="670" y="370" width="90" height="90" as="geometry" />
        </mxCell>
        <mxCell id="iIZ1Hgpg9Qb0fUDsrSR7-58" value="Learning&lt;div&gt;Activity&lt;/div&gt;" style="ellipse;whiteSpace=wrap;html=1;aspect=fixed;" parent="1" vertex="1">
          <mxGeometry x="937.1400000000001" y="345" width="60" height="60" as="geometry" />
        </mxCell>
        <mxCell id="iIZ1Hgpg9Qb0fUDsrSR7-60" style="edgeStyle=orthogonalEdgeStyle;rounded=0;orthogonalLoop=1;jettySize=auto;html=1;" parent="1" source="iIZ1Hgpg9Qb0fUDsrSR7-59" target="iIZ1Hgpg9Qb0fUDsrSR7-58" edge="1">
          <mxGeometry relative="1" as="geometry" />
        </mxCell>
        <mxCell id="iIZ1Hgpg9Qb0fUDsrSR7-61" value="is" style="edgeLabel;html=1;align=center;verticalAlign=middle;resizable=0;points=[];" parent="iIZ1Hgpg9Qb0fUDsrSR7-60" vertex="1" connectable="0">
          <mxGeometry x="0.06" y="3" relative="1" as="geometry">
            <mxPoint as="offset" />
          </mxGeometry>
        </mxCell>
        <mxCell id="iIZ1Hgpg9Qb0fUDsrSR7-59" value="&lt;span style=&quot;text-wrap: nowrap;&quot;&gt;EDC&amp;nbsp;&lt;/span&gt;&lt;div&gt;&lt;span style=&quot;text-wrap: nowrap;&quot;&gt;building&amp;nbsp;&lt;/span&gt;&lt;div&gt;&lt;span style=&quot;text-wrap: nowrap;&quot;&gt;training&amp;nbsp;&lt;/span&gt;&lt;div&gt;&lt;span style=&quot;text-wrap: nowrap;&quot;&gt;course&lt;/span&gt;&lt;br&gt;&lt;/div&gt;&lt;/div&gt;&lt;/div&gt;" style="strokeWidth=2;html=1;shape=mxgraph.flowchart.start_2;whiteSpace=wrap;strokeColor=#3333FF;" parent="1" vertex="1">
          <mxGeometry x="947.14" y="470" width="90" height="90" as="geometry" />
        </mxCell>
        <mxCell id="iIZ1Hgpg9Qb0fUDsrSR7-62" style="edgeStyle=orthogonalEdgeStyle;rounded=0;orthogonalLoop=1;jettySize=auto;html=1;entryX=0.855;entryY=0.855;entryDx=0;entryDy=0;entryPerimeter=0;" parent="1" source="iIZ1Hgpg9Qb0fUDsrSR7-59" target="iIZ1Hgpg9Qb0fUDsrSR7-55" edge="1">
          <mxGeometry relative="1" as="geometry">
            <Array as="points">
              <mxPoint x="880" y="515" />
              <mxPoint x="880" y="447" />
            </Array>
          </mxGeometry>
        </mxCell>
        <mxCell id="iIZ1Hgpg9Qb0fUDsrSR7-63" value="influences" style="edgeLabel;html=1;align=center;verticalAlign=middle;resizable=0;points=[];" parent="iIZ1Hgpg9Qb0fUDsrSR7-62" vertex="1" connectable="0">
          <mxGeometry x="-0.1173" y="-2" relative="1" as="geometry">
            <mxPoint as="offset" />
          </mxGeometry>
        </mxCell>
        <mxCell id="iIZ1Hgpg9Qb0fUDsrSR7-64" value="&lt;div&gt;Learning&lt;/div&gt;&lt;div&gt;Activity&lt;/div&gt;&lt;div&gt;Specification&lt;/div&gt;" style="ellipse;whiteSpace=wrap;html=1;aspect=fixed;" parent="1" vertex="1">
          <mxGeometry x="1182.14" y="380" width="60" height="60" as="geometry" />
        </mxCell>
        <mxCell id="iIZ1Hgpg9Qb0fUDsrSR7-66" style="edgeStyle=orthogonalEdgeStyle;rounded=0;orthogonalLoop=1;jettySize=auto;html=1;" parent="1" source="iIZ1Hgpg9Qb0fUDsrSR7-65" target="iIZ1Hgpg9Qb0fUDsrSR7-64" edge="1">
          <mxGeometry relative="1" as="geometry" />
        </mxCell>
        <mxCell id="iIZ1Hgpg9Qb0fUDsrSR7-67" value="is" style="edgeLabel;html=1;align=center;verticalAlign=middle;resizable=0;points=[];" parent="iIZ1Hgpg9Qb0fUDsrSR7-66" vertex="1" connectable="0">
          <mxGeometry x="0.0769" relative="1" as="geometry">
            <mxPoint as="offset" />
          </mxGeometry>
        </mxCell>
        <mxCell id="iIZ1Hgpg9Qb0fUDsrSR7-65" value="&lt;span style=&quot;text-wrap: nowrap;&quot;&gt;EDC&amp;nbsp;&lt;/span&gt;&lt;div&gt;&lt;span style=&quot;text-wrap: nowrap;&quot;&gt;building&amp;nbsp;&lt;/span&gt;&lt;div&gt;&lt;span style=&quot;text-wrap: nowrap;&quot;&gt;training&amp;nbsp;&lt;/span&gt;&lt;div&gt;&lt;span style=&quot;text-wrap: nowrap;&quot;&gt;course&lt;/span&gt;&lt;br&gt;&lt;/div&gt;&lt;/div&gt;&lt;/div&gt;" style="strokeWidth=2;html=1;shape=mxgraph.flowchart.start_2;whiteSpace=wrap;strokeColor=#3333FF;" parent="1" vertex="1">
          <mxGeometry x="1177.14" y="480" width="90" height="90" as="geometry" />
        </mxCell>
        <mxCell id="iIZ1Hgpg9Qb0fUDsrSR7-68" style="edgeStyle=orthogonalEdgeStyle;rounded=0;orthogonalLoop=1;jettySize=auto;html=1;exitX=0.145;exitY=0.145;exitDx=0;exitDy=0;exitPerimeter=0;entryX=0.88;entryY=0.78;entryDx=0;entryDy=0;entryPerimeter=0;" parent="1" source="iIZ1Hgpg9Qb0fUDsrSR7-65" target="iIZ1Hgpg9Qb0fUDsrSR7-59" edge="1">
          <mxGeometry relative="1" as="geometry" />
        </mxCell>
        <mxCell id="iIZ1Hgpg9Qb0fUDsrSR7-69" value="specifies&lt;div&gt;&lt;br&gt;&lt;/div&gt;" style="edgeLabel;html=1;align=center;verticalAlign=middle;resizable=0;points=[];" parent="iIZ1Hgpg9Qb0fUDsrSR7-68" vertex="1" connectable="0">
          <mxGeometry x="-0.2943" y="-1" relative="1" as="geometry">
            <mxPoint x="1" as="offset" />
          </mxGeometry>
        </mxCell>
        <mxCell id="iIZ1Hgpg9Qb0fUDsrSR7-70" value="&lt;div&gt;Learning&lt;/div&gt;&lt;div&gt;Assessment&lt;/div&gt;" style="ellipse;whiteSpace=wrap;html=1;aspect=fixed;" parent="1" vertex="1">
          <mxGeometry x="1067.1399999999999" y="560" width="60" height="60" as="geometry" />
        </mxCell>
        <mxCell id="iIZ1Hgpg9Qb0fUDsrSR7-71" value="&lt;span style=&quot;text-wrap: nowrap;&quot;&gt;Digital&lt;/span&gt;&lt;div&gt;&lt;span style=&quot;text-wrap: nowrap;&quot;&gt;artefact&lt;/span&gt;&lt;/div&gt;&lt;div&gt;&lt;span style=&quot;text-wrap: nowrap;&quot;&gt;assessment&lt;/span&gt;&lt;br&gt;&lt;/div&gt;" style="strokeWidth=2;html=1;shape=mxgraph.flowchart.start_2;whiteSpace=wrap;strokeColor=#3333FF;" parent="1" vertex="1">
          <mxGeometry x="827.14" y="580" width="90" height="90" as="geometry" />
        </mxCell>
        <mxCell id="iIZ1Hgpg9Qb0fUDsrSR7-72" style="edgeStyle=orthogonalEdgeStyle;rounded=0;orthogonalLoop=1;jettySize=auto;html=1;entryX=0.738;entryY=0.988;entryDx=0;entryDy=0;entryPerimeter=0;" parent="1" source="iIZ1Hgpg9Qb0fUDsrSR7-71" target="iIZ1Hgpg9Qb0fUDsrSR7-70" edge="1">
          <mxGeometry relative="1" as="geometry" />
        </mxCell>
        <mxCell id="iIZ1Hgpg9Qb0fUDsrSR7-73" value="is" style="edgeLabel;html=1;align=center;verticalAlign=middle;resizable=0;points=[];" parent="iIZ1Hgpg9Qb0fUDsrSR7-72" vertex="1" connectable="0">
          <mxGeometry x="0.1433" y="-2" relative="1" as="geometry">
            <mxPoint as="offset" />
          </mxGeometry>
        </mxCell>
        <mxCell id="iIZ1Hgpg9Qb0fUDsrSR7-78" style="edgeStyle=orthogonalEdgeStyle;rounded=0;orthogonalLoop=1;jettySize=auto;html=1;entryX=0.34;entryY=0.97;entryDx=0;entryDy=0;entryPerimeter=0;" parent="1" source="iIZ1Hgpg9Qb0fUDsrSR7-71" target="iIZ1Hgpg9Qb0fUDsrSR7-55" edge="1">
          <mxGeometry relative="1" as="geometry">
            <Array as="points">
              <mxPoint x="740" y="625" />
              <mxPoint x="740" y="457" />
            </Array>
          </mxGeometry>
        </mxCell>
        <mxCell id="iIZ1Hgpg9Qb0fUDsrSR7-79" value="proves" style="edgeLabel;html=1;align=center;verticalAlign=middle;resizable=0;points=[];" parent="iIZ1Hgpg9Qb0fUDsrSR7-78" vertex="1" connectable="0">
          <mxGeometry x="-0.0079" y="2" relative="1" as="geometry">
            <mxPoint as="offset" />
          </mxGeometry>
        </mxCell>
        <mxCell id="iIZ1Hgpg9Qb0fUDsrSR7-80" value="&lt;div&gt;Learning&lt;/div&gt;&lt;div&gt;Assessment&lt;/div&gt;&lt;div&gt;Specification&lt;/div&gt;" style="ellipse;whiteSpace=wrap;html=1;aspect=fixed;" parent="1" vertex="1">
          <mxGeometry x="1310" y="570" width="60" height="60" as="geometry" />
        </mxCell>
        <mxCell id="iIZ1Hgpg9Qb0fUDsrSR7-82" style="edgeStyle=orthogonalEdgeStyle;rounded=0;orthogonalLoop=1;jettySize=auto;html=1;entryX=0.5;entryY=1;entryDx=0;entryDy=0;" parent="1" source="iIZ1Hgpg9Qb0fUDsrSR7-81" target="iIZ1Hgpg9Qb0fUDsrSR7-80" edge="1">
          <mxGeometry relative="1" as="geometry" />
        </mxCell>
        <mxCell id="iIZ1Hgpg9Qb0fUDsrSR7-83" value="is" style="edgeLabel;html=1;align=center;verticalAlign=middle;resizable=0;points=[];" parent="iIZ1Hgpg9Qb0fUDsrSR7-82" vertex="1" connectable="0">
          <mxGeometry x="0.1692" y="-1" relative="1" as="geometry">
            <mxPoint as="offset" />
          </mxGeometry>
        </mxCell>
        <mxCell id="iIZ1Hgpg9Qb0fUDsrSR7-81" value="&lt;span style=&quot;text-wrap: nowrap;&quot;&gt;Digital&lt;/span&gt;&lt;div&gt;&lt;span style=&quot;text-wrap: nowrap;&quot;&gt;artefact&lt;/span&gt;&lt;/div&gt;&lt;div&gt;&lt;span style=&quot;text-wrap: nowrap;&quot;&gt;assessment&lt;/span&gt;&lt;br&gt;&lt;/div&gt;" style="strokeWidth=2;html=1;shape=mxgraph.flowchart.start_2;whiteSpace=wrap;strokeColor=#3333FF;" parent="1" vertex="1">
          <mxGeometry x="1167.14" y="620" width="90" height="90" as="geometry" />
        </mxCell>
        <mxCell id="iIZ1Hgpg9Qb0fUDsrSR7-84" style="edgeStyle=orthogonalEdgeStyle;rounded=0;orthogonalLoop=1;jettySize=auto;html=1;entryX=0.855;entryY=0.855;entryDx=0;entryDy=0;entryPerimeter=0;" parent="1" source="iIZ1Hgpg9Qb0fUDsrSR7-81" target="iIZ1Hgpg9Qb0fUDsrSR7-71" edge="1">
          <mxGeometry relative="1" as="geometry" />
        </mxCell>
        <mxCell id="iIZ1Hgpg9Qb0fUDsrSR7-85" value="specifies" style="edgeLabel;html=1;align=center;verticalAlign=middle;resizable=0;points=[];" parent="iIZ1Hgpg9Qb0fUDsrSR7-84" vertex="1" connectable="0">
          <mxGeometry x="-0.1313" y="1" relative="1" as="geometry">
            <mxPoint as="offset" />
          </mxGeometry>
        </mxCell>
        <mxCell id="iIZ1Hgpg9Qb0fUDsrSR7-86" value="Qualification" style="ellipse;whiteSpace=wrap;html=1;aspect=fixed;" parent="1" vertex="1">
          <mxGeometry x="450" y="400" width="60" height="60" as="geometry" />
        </mxCell>
        <mxCell id="iIZ1Hgpg9Qb0fUDsrSR7-90" style="edgeStyle=orthogonalEdgeStyle;rounded=0;orthogonalLoop=1;jettySize=auto;html=1;" parent="1" source="iIZ1Hgpg9Qb0fUDsrSR7-87" target="iIZ1Hgpg9Qb0fUDsrSR7-55" edge="1">
          <mxGeometry relative="1" as="geometry">
            <Array as="points">
              <mxPoint x="660" y="565" />
              <mxPoint x="660" y="415" />
            </Array>
          </mxGeometry>
        </mxCell>
        <mxCell id="iIZ1Hgpg9Qb0fUDsrSR7-91" value="specifies" style="edgeLabel;html=1;align=center;verticalAlign=middle;resizable=0;points=[];" parent="iIZ1Hgpg9Qb0fUDsrSR7-90" vertex="1" connectable="0">
          <mxGeometry x="-0.1692" y="3" relative="1" as="geometry">
            <mxPoint as="offset" />
          </mxGeometry>
        </mxCell>
        <mxCell id="iIZ1Hgpg9Qb0fUDsrSR7-107" style="edgeStyle=orthogonalEdgeStyle;rounded=0;orthogonalLoop=1;jettySize=auto;html=1;" parent="1" source="iIZ1Hgpg9Qb0fUDsrSR7-87" target="iIZ1Hgpg9Qb0fUDsrSR7-106" edge="1">
          <mxGeometry relative="1" as="geometry" />
        </mxCell>
        <mxCell id="iIZ1Hgpg9Qb0fUDsrSR7-108" value="setting&lt;div&gt;&lt;br&gt;&lt;/div&gt;" style="edgeLabel;html=1;align=center;verticalAlign=middle;resizable=0;points=[];" parent="iIZ1Hgpg9Qb0fUDsrSR7-107" vertex="1" connectable="0">
          <mxGeometry x="-0.0057" y="-1" relative="1" as="geometry">
            <mxPoint as="offset" />
          </mxGeometry>
        </mxCell>
        <mxCell id="iIZ1Hgpg9Qb0fUDsrSR7-125" style="edgeStyle=orthogonalEdgeStyle;rounded=0;orthogonalLoop=1;jettySize=auto;html=1;exitX=0.855;exitY=0.855;exitDx=0;exitDy=0;exitPerimeter=0;" parent="1" source="iIZ1Hgpg9Qb0fUDsrSR7-87" target="iIZ1Hgpg9Qb0fUDsrSR7-123" edge="1">
          <mxGeometry relative="1" as="geometry" />
        </mxCell>
        <mxCell id="iIZ1Hgpg9Qb0fUDsrSR7-126" value="eqf" style="edgeLabel;html=1;align=center;verticalAlign=middle;resizable=0;points=[];" parent="iIZ1Hgpg9Qb0fUDsrSR7-125" vertex="1" connectable="0">
          <mxGeometry x="-0.0752" y="5" relative="1" as="geometry">
            <mxPoint as="offset" />
          </mxGeometry>
        </mxCell>
        <mxCell id="iIZ1Hgpg9Qb0fUDsrSR7-87" value="&lt;div&gt;&lt;span style=&quot;text-wrap: nowrap;&quot;&gt;Digital&lt;/span&gt;&lt;/div&gt;&lt;div&gt;&lt;span style=&quot;text-wrap: nowrap;&quot;&gt;micro-credential&lt;/span&gt;&lt;/div&gt;&lt;div&gt;&lt;span style=&quot;text-wrap: nowrap;&quot;&gt;creation&lt;/span&gt;&lt;br&gt;&lt;/div&gt;" style="strokeWidth=2;html=1;shape=mxgraph.flowchart.start_2;whiteSpace=wrap;strokeColor=#3333FF;" parent="1" vertex="1">
          <mxGeometry x="405" y="520" width="90" height="90" as="geometry" />
        </mxCell>
        <mxCell id="iIZ1Hgpg9Qb0fUDsrSR7-88" style="edgeStyle=orthogonalEdgeStyle;rounded=0;orthogonalLoop=1;jettySize=auto;html=1;entryX=0.35;entryY=1.013;entryDx=0;entryDy=0;entryPerimeter=0;" parent="1" source="iIZ1Hgpg9Qb0fUDsrSR7-87" target="iIZ1Hgpg9Qb0fUDsrSR7-86" edge="1">
          <mxGeometry relative="1" as="geometry" />
        </mxCell>
        <mxCell id="iIZ1Hgpg9Qb0fUDsrSR7-89" value="is" style="edgeLabel;html=1;align=center;verticalAlign=middle;resizable=0;points=[];" parent="iIZ1Hgpg9Qb0fUDsrSR7-88" vertex="1" connectable="0">
          <mxGeometry x="0.1593" y="3" relative="1" as="geometry">
            <mxPoint as="offset" />
          </mxGeometry>
        </mxCell>
        <mxCell id="iIZ1Hgpg9Qb0fUDsrSR7-92" value="Learning&lt;div&gt;Outcome&lt;/div&gt;" style="ellipse;whiteSpace=wrap;html=1;aspect=fixed;" parent="1" vertex="1">
          <mxGeometry x="50" y="550" width="60" height="60" as="geometry" />
        </mxCell>
        <mxCell id="iIZ1Hgpg9Qb0fUDsrSR7-93" value="&lt;div&gt;&lt;span style=&quot;text-wrap: nowrap;&quot;&gt;Communication,&amp;nbsp;&lt;/span&gt;&lt;/div&gt;&lt;div&gt;&lt;span style=&quot;text-wrap: nowrap;&quot;&gt;collaboration&amp;nbsp;&lt;/span&gt;&lt;/div&gt;&lt;div&gt;&lt;span style=&quot;text-wrap: nowrap;&quot;&gt;and&amp;nbsp;&lt;/span&gt;&lt;/div&gt;&lt;div&gt;&lt;span style=&quot;text-wrap: nowrap;&quot;&gt;creativity&lt;/span&gt;&lt;br&gt;&lt;/div&gt;" style="strokeWidth=2;html=1;shape=mxgraph.flowchart.start_2;whiteSpace=wrap;strokeColor=#3333FF;" parent="1" vertex="1">
          <mxGeometry x="210" y="560" width="90" height="90" as="geometry" />
        </mxCell>
        <mxCell id="iIZ1Hgpg9Qb0fUDsrSR7-103" style="edgeStyle=orthogonalEdgeStyle;rounded=0;orthogonalLoop=1;jettySize=auto;html=1;entryX=0.932;entryY=0.641;entryDx=0;entryDy=0;entryPerimeter=0;" parent="1" source="iIZ1Hgpg9Qb0fUDsrSR7-93" target="iIZ1Hgpg9Qb0fUDsrSR7-92" edge="1">
          <mxGeometry relative="1" as="geometry" />
        </mxCell>
        <mxCell id="iIZ1Hgpg9Qb0fUDsrSR7-104" value="is" style="edgeLabel;html=1;align=center;verticalAlign=middle;resizable=0;points=[];" parent="iIZ1Hgpg9Qb0fUDsrSR7-103" vertex="1" connectable="0">
          <mxGeometry x="0.1" relative="1" as="geometry">
            <mxPoint y="1" as="offset" />
          </mxGeometry>
        </mxCell>
        <mxCell id="iIZ1Hgpg9Qb0fUDsrSR7-106" value="&lt;div&gt;&lt;span style=&quot;text-wrap: nowrap;&quot;&gt;non-formal&amp;nbsp;&lt;/span&gt;&lt;/div&gt;&lt;div&gt;&lt;span style=&quot;text-wrap: nowrap;&quot;&gt;learning&lt;/span&gt;&lt;br&gt;&lt;/div&gt;" style="strokeWidth=2;html=1;shape=mxgraph.flowchart.start_2;whiteSpace=wrap;strokeColor=#3333FF;aspect=fixed;" parent="1" vertex="1">
          <mxGeometry x="145" y="440" width="80" height="80" as="geometry" />
        </mxCell>
        <mxCell id="iIZ1Hgpg9Qb0fUDsrSR7-109" style="edgeStyle=orthogonalEdgeStyle;rounded=0;orthogonalLoop=1;jettySize=auto;html=1;exitX=0.145;exitY=0.855;exitDx=0;exitDy=0;exitPerimeter=0;entryX=0.855;entryY=0.145;entryDx=0;entryDy=0;entryPerimeter=0;" parent="1" source="iIZ1Hgpg9Qb0fUDsrSR7-12" target="iIZ1Hgpg9Qb0fUDsrSR7-29" edge="1">
          <mxGeometry relative="1" as="geometry">
            <Array as="points">
              <mxPoint x="333" y="230" />
              <mxPoint x="218" y="230" />
            </Array>
          </mxGeometry>
        </mxCell>
        <mxCell id="iIZ1Hgpg9Qb0fUDsrSR7-110" value="has" style="edgeLabel;html=1;align=center;verticalAlign=middle;resizable=0;points=[];" parent="iIZ1Hgpg9Qb0fUDsrSR7-109" vertex="1" connectable="0">
          <mxGeometry x="-0.0319" y="-3" relative="1" as="geometry">
            <mxPoint as="offset" />
          </mxGeometry>
        </mxCell>
        <mxCell id="iIZ1Hgpg9Qb0fUDsrSR7-112" style="edgeStyle=orthogonalEdgeStyle;rounded=0;orthogonalLoop=1;jettySize=auto;html=1;exitX=0.145;exitY=0.855;exitDx=0;exitDy=0;exitPerimeter=0;entryX=1;entryY=0.5;entryDx=0;entryDy=0;entryPerimeter=0;" parent="1" source="iIZ1Hgpg9Qb0fUDsrSR7-87" target="iIZ1Hgpg9Qb0fUDsrSR7-93" edge="1">
          <mxGeometry relative="1" as="geometry" />
        </mxCell>
        <mxCell id="iIZ1Hgpg9Qb0fUDsrSR7-113" value="outcome" style="edgeLabel;html=1;align=center;verticalAlign=middle;resizable=0;points=[];" parent="iIZ1Hgpg9Qb0fUDsrSR7-112" vertex="1" connectable="0">
          <mxGeometry x="0.3812" y="-3" relative="1" as="geometry">
            <mxPoint as="offset" />
          </mxGeometry>
        </mxCell>
        <mxCell id="iIZ1Hgpg9Qb0fUDsrSR7-114" value="&lt;div&gt;&lt;span style=&quot;text-wrap: nowrap;&quot;&gt;Blended&lt;/span&gt;&lt;br&gt;&lt;/div&gt;" style="strokeWidth=2;html=1;shape=mxgraph.flowchart.start_2;whiteSpace=wrap;strokeColor=#3333FF;aspect=fixed;" parent="1" vertex="1">
          <mxGeometry x="250" y="390" width="80" height="80" as="geometry" />
        </mxCell>
        <mxCell id="iIZ1Hgpg9Qb0fUDsrSR7-115" style="edgeStyle=orthogonalEdgeStyle;rounded=0;orthogonalLoop=1;jettySize=auto;html=1;exitX=0.145;exitY=0.145;exitDx=0;exitDy=0;exitPerimeter=0;entryX=1;entryY=0.5;entryDx=0;entryDy=0;entryPerimeter=0;" parent="1" source="iIZ1Hgpg9Qb0fUDsrSR7-87" target="iIZ1Hgpg9Qb0fUDsrSR7-114" edge="1">
          <mxGeometry relative="1" as="geometry" />
        </mxCell>
        <mxCell id="iIZ1Hgpg9Qb0fUDsrSR7-116" value="mode" style="edgeLabel;html=1;align=center;verticalAlign=middle;resizable=0;points=[];" parent="iIZ1Hgpg9Qb0fUDsrSR7-115" vertex="1" connectable="0">
          <mxGeometry x="0.1102" relative="1" as="geometry">
            <mxPoint as="offset" />
          </mxGeometry>
        </mxCell>
        <mxCell id="iIZ1Hgpg9Qb0fUDsrSR7-117" value="&lt;div&gt;&lt;span style=&quot;text-wrap: nowrap;&quot;&gt;ICT&lt;/span&gt;&lt;br&gt;&lt;/div&gt;" style="strokeWidth=2;html=1;shape=mxgraph.flowchart.start_2;whiteSpace=wrap;strokeColor=#3333FF;aspect=fixed;" parent="1" vertex="1">
          <mxGeometry x="265" y="670" width="80" height="80" as="geometry" />
        </mxCell>
        <mxCell id="iIZ1Hgpg9Qb0fUDsrSR7-118" value="&lt;div&gt;&lt;span style=&quot;text-wrap: nowrap;&quot;&gt;Personal&amp;nbsp;&lt;/span&gt;&lt;/div&gt;&lt;div&gt;&lt;span style=&quot;text-wrap: nowrap;&quot;&gt;skills&amp;nbsp;&lt;/span&gt;&lt;/div&gt;&lt;div&gt;&lt;span style=&quot;text-wrap: nowrap;&quot;&gt;and&amp;nbsp;&lt;/span&gt;&lt;/div&gt;&lt;div&gt;&lt;span style=&quot;text-wrap: nowrap;&quot;&gt;development&lt;/span&gt;&lt;br&gt;&lt;/div&gt;" style="strokeWidth=2;html=1;shape=mxgraph.flowchart.start_2;whiteSpace=wrap;strokeColor=#3333FF;aspect=fixed;" parent="1" vertex="1">
          <mxGeometry x="370" y="680" width="80" height="80" as="geometry" />
        </mxCell>
        <mxCell id="iIZ1Hgpg9Qb0fUDsrSR7-119" style="edgeStyle=orthogonalEdgeStyle;rounded=0;orthogonalLoop=1;jettySize=auto;html=1;entryX=0.855;entryY=0.145;entryDx=0;entryDy=0;entryPerimeter=0;" parent="1" source="iIZ1Hgpg9Qb0fUDsrSR7-87" target="iIZ1Hgpg9Qb0fUDsrSR7-117" edge="1">
          <mxGeometry relative="1" as="geometry">
            <Array as="points">
              <mxPoint x="450" y="630" />
              <mxPoint x="333" y="630" />
            </Array>
          </mxGeometry>
        </mxCell>
        <mxCell id="iIZ1Hgpg9Qb0fUDsrSR7-120" value="thematicArea" style="edgeLabel;html=1;align=center;verticalAlign=middle;resizable=0;points=[];" parent="iIZ1Hgpg9Qb0fUDsrSR7-119" vertex="1" connectable="0">
          <mxGeometry x="0.3223" y="-1" relative="1" as="geometry">
            <mxPoint y="1" as="offset" />
          </mxGeometry>
        </mxCell>
        <mxCell id="iIZ1Hgpg9Qb0fUDsrSR7-121" style="edgeStyle=orthogonalEdgeStyle;rounded=0;orthogonalLoop=1;jettySize=auto;html=1;exitX=0.5;exitY=1;exitDx=0;exitDy=0;exitPerimeter=0;entryX=0.145;entryY=0.145;entryDx=0;entryDy=0;entryPerimeter=0;" parent="1" source="iIZ1Hgpg9Qb0fUDsrSR7-87" target="iIZ1Hgpg9Qb0fUDsrSR7-118" edge="1">
          <mxGeometry relative="1" as="geometry" />
        </mxCell>
        <mxCell id="iIZ1Hgpg9Qb0fUDsrSR7-122" value="thematicArea" style="edgeLabel;html=1;align=center;verticalAlign=middle;resizable=0;points=[];" parent="iIZ1Hgpg9Qb0fUDsrSR7-121" vertex="1" connectable="0">
          <mxGeometry x="-0.2242" y="2" relative="1" as="geometry">
            <mxPoint as="offset" />
          </mxGeometry>
        </mxCell>
        <mxCell id="iIZ1Hgpg9Qb0fUDsrSR7-123" value="&lt;div&gt;&lt;span style=&quot;text-wrap: nowrap;&quot;&gt;IE NQF Level 6&lt;/span&gt;&lt;br&gt;&lt;/div&gt;" style="strokeWidth=2;html=1;shape=mxgraph.flowchart.start_2;whiteSpace=wrap;strokeColor=#3333FF;aspect=fixed;" parent="1" vertex="1">
          <mxGeometry x="485" y="690" width="80" height="80" as="geometry" />
        </mxCell>
        <mxCell id="iIZ1Hgpg9Qb0fUDsrSR7-124" value="&lt;div&gt;&lt;span style=&quot;text-wrap: nowrap;&quot;&gt;Level 6&lt;/span&gt;&lt;br&gt;&lt;/div&gt;" style="strokeWidth=2;html=1;shape=mxgraph.flowchart.start_2;whiteSpace=wrap;strokeColor=#3333FF;aspect=fixed;" parent="1" vertex="1">
          <mxGeometry x="545" y="610" width="80" height="80" as="geometry" />
        </mxCell>
        <mxCell id="iIZ1Hgpg9Qb0fUDsrSR7-127" style="edgeStyle=orthogonalEdgeStyle;rounded=0;orthogonalLoop=1;jettySize=auto;html=1;entryX=0.313;entryY=0.125;entryDx=0;entryDy=0;entryPerimeter=0;" parent="1" source="iIZ1Hgpg9Qb0fUDsrSR7-87" target="iIZ1Hgpg9Qb0fUDsrSR7-124" edge="1">
          <mxGeometry relative="1" as="geometry" />
        </mxCell>
        <mxCell id="iIZ1Hgpg9Qb0fUDsrSR7-128" value="nqf" style="edgeLabel;html=1;align=center;verticalAlign=middle;resizable=0;points=[];" parent="iIZ1Hgpg9Qb0fUDsrSR7-127" vertex="1" connectable="0">
          <mxGeometry x="-0.1805" y="-1" relative="1" as="geometry">
            <mxPoint as="offset" />
          </mxGeometry>
        </mxCell>
        <mxCell id="iIZ1Hgpg9Qb0fUDsrSR7-129" value="Organisation" style="ellipse;whiteSpace=wrap;html=1;aspect=fixed;" parent="1" vertex="1">
          <mxGeometry x="1007.14" y="120" width="60" height="60" as="geometry" />
        </mxCell>
        <mxCell id="iIZ1Hgpg9Qb0fUDsrSR7-131" style="edgeStyle=orthogonalEdgeStyle;rounded=0;orthogonalLoop=1;jettySize=auto;html=1;entryX=1;entryY=1;entryDx=0;entryDy=0;" parent="1" source="iIZ1Hgpg9Qb0fUDsrSR7-130" target="iIZ1Hgpg9Qb0fUDsrSR7-129" edge="1">
          <mxGeometry relative="1" as="geometry" />
        </mxCell>
        <mxCell id="iIZ1Hgpg9Qb0fUDsrSR7-132" value="is" style="edgeLabel;html=1;align=center;verticalAlign=middle;resizable=0;points=[];" parent="iIZ1Hgpg9Qb0fUDsrSR7-131" vertex="1" connectable="0">
          <mxGeometry x="0.1358" relative="1" as="geometry">
            <mxPoint as="offset" />
          </mxGeometry>
        </mxCell>
        <mxCell id="iIZ1Hgpg9Qb0fUDsrSR7-133" style="edgeStyle=orthogonalEdgeStyle;rounded=0;orthogonalLoop=1;jettySize=auto;html=1;exitX=0.145;exitY=0.855;exitDx=0;exitDy=0;exitPerimeter=0;entryX=0.892;entryY=0.29;entryDx=0;entryDy=0;entryPerimeter=0;" parent="1" source="iIZ1Hgpg9Qb0fUDsrSR7-130" target="iIZ1Hgpg9Qb0fUDsrSR7-55" edge="1">
          <mxGeometry relative="1" as="geometry">
            <Array as="points">
              <mxPoint x="1010" y="330" />
              <mxPoint x="750" y="330" />
            </Array>
          </mxGeometry>
        </mxCell>
        <mxCell id="iIZ1Hgpg9Qb0fUDsrSR7-134" value="awards" style="edgeLabel;html=1;align=center;verticalAlign=middle;resizable=0;points=[];" parent="iIZ1Hgpg9Qb0fUDsrSR7-133" vertex="1" connectable="0">
          <mxGeometry x="-0.2052" y="-5" relative="1" as="geometry">
            <mxPoint as="offset" />
          </mxGeometry>
        </mxCell>
        <mxCell id="iIZ1Hgpg9Qb0fUDsrSR7-148" style="edgeStyle=orthogonalEdgeStyle;rounded=0;orthogonalLoop=1;jettySize=auto;html=1;" parent="1" source="iIZ1Hgpg9Qb0fUDsrSR7-130" target="iIZ1Hgpg9Qb0fUDsrSR7-147" edge="1">
          <mxGeometry relative="1" as="geometry" />
        </mxCell>
        <mxCell id="iIZ1Hgpg9Qb0fUDsrSR7-149" value="location" style="edgeLabel;html=1;align=center;verticalAlign=middle;resizable=0;points=[];" parent="iIZ1Hgpg9Qb0fUDsrSR7-148" vertex="1" connectable="0">
          <mxGeometry x="0.0655" y="2" relative="1" as="geometry">
            <mxPoint as="offset" />
          </mxGeometry>
        </mxCell>
        <mxCell id="iIZ1Hgpg9Qb0fUDsrSR7-165" style="edgeStyle=orthogonalEdgeStyle;rounded=0;orthogonalLoop=1;jettySize=auto;html=1;" parent="1" source="iIZ1Hgpg9Qb0fUDsrSR7-130" target="iIZ1Hgpg9Qb0fUDsrSR7-161" edge="1">
          <mxGeometry relative="1" as="geometry" />
        </mxCell>
        <mxCell id="iIZ1Hgpg9Qb0fUDsrSR7-166" value="homepage" style="edgeLabel;html=1;align=center;verticalAlign=middle;resizable=0;points=[];" parent="iIZ1Hgpg9Qb0fUDsrSR7-165" vertex="1" connectable="0">
          <mxGeometry x="-0.1291" relative="1" as="geometry">
            <mxPoint as="offset" />
          </mxGeometry>
        </mxCell>
        <mxCell id="iIZ1Hgpg9Qb0fUDsrSR7-130" value="&lt;span style=&quot;text-wrap: nowrap;&quot;&gt;Learning&amp;nbsp;&lt;/span&gt;&lt;div&gt;&lt;span style=&quot;text-wrap: nowrap;&quot;&gt;Provider&lt;/span&gt;&lt;/div&gt;" style="strokeWidth=2;html=1;shape=mxgraph.flowchart.start_2;whiteSpace=wrap;strokeColor=#3333FF;" parent="1" vertex="1">
          <mxGeometry x="997.1399999999999" y="220" width="90" height="90" as="geometry" />
        </mxCell>
        <mxCell id="iIZ1Hgpg9Qb0fUDsrSR7-135" value="&lt;span style=&quot;text-wrap: nowrap;&quot;&gt;Campus Square&amp;nbsp;&lt;/span&gt;&lt;div&gt;&lt;span style=&quot;text-wrap: nowrap;&quot;&gt;429&lt;/span&gt;&lt;br&gt;&lt;/div&gt;" style="strokeWidth=2;html=1;shape=mxgraph.flowchart.start_2;whiteSpace=wrap;strokeColor=#3333FF;aspect=fixed;" parent="1" vertex="1">
          <mxGeometry x="1127.1399999999999" y="60" width="80" height="80" as="geometry" />
        </mxCell>
        <mxCell id="iIZ1Hgpg9Qb0fUDsrSR7-138" style="edgeStyle=orthogonalEdgeStyle;rounded=0;orthogonalLoop=1;jettySize=auto;html=1;exitX=0;exitY=0.5;exitDx=0;exitDy=0;exitPerimeter=0;entryX=1;entryY=0.5;entryDx=0;entryDy=0;" parent="1" source="iIZ1Hgpg9Qb0fUDsrSR7-137" target="iIZ1Hgpg9Qb0fUDsrSR7-16" edge="1">
          <mxGeometry relative="1" as="geometry" />
        </mxCell>
        <mxCell id="iIZ1Hgpg9Qb0fUDsrSR7-139" value="is" style="edgeLabel;html=1;align=center;verticalAlign=middle;resizable=0;points=[];" parent="iIZ1Hgpg9Qb0fUDsrSR7-138" vertex="1" connectable="0">
          <mxGeometry x="0.1556" y="-2" relative="1" as="geometry">
            <mxPoint as="offset" />
          </mxGeometry>
        </mxCell>
        <mxCell id="iIZ1Hgpg9Qb0fUDsrSR7-137" value="&lt;span style=&quot;text-wrap: nowrap;&quot;&gt;Dublin&lt;/span&gt;" style="strokeWidth=2;html=1;shape=mxgraph.flowchart.start_2;whiteSpace=wrap;strokeColor=#3333FF;aspect=fixed;" parent="1" vertex="1">
          <mxGeometry x="1020" y="20" width="70" height="70" as="geometry" />
        </mxCell>
        <mxCell id="iIZ1Hgpg9Qb0fUDsrSR7-140" style="edgeStyle=orthogonalEdgeStyle;rounded=0;orthogonalLoop=1;jettySize=auto;html=1;entryX=0.5;entryY=1;entryDx=0;entryDy=0;entryPerimeter=0;" parent="1" source="iIZ1Hgpg9Qb0fUDsrSR7-135" target="iIZ1Hgpg9Qb0fUDsrSR7-137" edge="1">
          <mxGeometry relative="1" as="geometry" />
        </mxCell>
        <mxCell id="iIZ1Hgpg9Qb0fUDsrSR7-141" value="city" style="edgeLabel;html=1;align=center;verticalAlign=middle;resizable=0;points=[];" parent="iIZ1Hgpg9Qb0fUDsrSR7-140" vertex="1" connectable="0">
          <mxGeometry x="-0.2756" y="1" relative="1" as="geometry">
            <mxPoint as="offset" />
          </mxGeometry>
        </mxCell>
        <mxCell id="iIZ1Hgpg9Qb0fUDsrSR7-142" style="edgeStyle=orthogonalEdgeStyle;rounded=0;orthogonalLoop=1;jettySize=auto;html=1;entryX=0.5;entryY=1;entryDx=0;entryDy=0;entryPerimeter=0;" parent="1" source="iIZ1Hgpg9Qb0fUDsrSR7-130" target="iIZ1Hgpg9Qb0fUDsrSR7-135" edge="1">
          <mxGeometry relative="1" as="geometry">
            <Array as="points">
              <mxPoint x="1120" y="265" />
              <mxPoint x="1120" y="170" />
              <mxPoint x="1130" y="170" />
              <mxPoint x="1130" y="140" />
            </Array>
          </mxGeometry>
        </mxCell>
        <mxCell id="iIZ1Hgpg9Qb0fUDsrSR7-143" value="contact" style="edgeLabel;html=1;align=center;verticalAlign=middle;resizable=0;points=[];" parent="iIZ1Hgpg9Qb0fUDsrSR7-142" vertex="1" connectable="0">
          <mxGeometry x="0.1652" y="1" relative="1" as="geometry">
            <mxPoint as="offset" />
          </mxGeometry>
        </mxCell>
        <mxCell id="iIZ1Hgpg9Qb0fUDsrSR7-144" value="&lt;span style=&quot;text-wrap: nowrap;&quot;&gt;info&lt;/span&gt;&lt;div&gt;&lt;span style=&quot;text-wrap: nowrap;&quot;&gt;@&lt;/span&gt;&lt;/div&gt;&lt;div&gt;&lt;span style=&quot;text-wrap: nowrap;&quot;&gt;learningprovider.edu&lt;/span&gt;&lt;br&gt;&lt;/div&gt;" style="strokeWidth=2;html=1;shape=mxgraph.flowchart.start_2;whiteSpace=wrap;strokeColor=#3333FF;" parent="1" vertex="1">
          <mxGeometry x="760" y="115" width="95" height="90" as="geometry" />
        </mxCell>
        <mxCell id="iIZ1Hgpg9Qb0fUDsrSR7-145" style="edgeStyle=orthogonalEdgeStyle;rounded=0;orthogonalLoop=1;jettySize=auto;html=1;exitX=0.051;exitY=0.719;exitDx=0;exitDy=0;exitPerimeter=0;entryX=0.5;entryY=1;entryDx=0;entryDy=0;entryPerimeter=0;" parent="1" source="iIZ1Hgpg9Qb0fUDsrSR7-130" target="iIZ1Hgpg9Qb0fUDsrSR7-144" edge="1">
          <mxGeometry relative="1" as="geometry" />
        </mxCell>
        <mxCell id="iIZ1Hgpg9Qb0fUDsrSR7-146" value="mailbox" style="edgeLabel;html=1;align=center;verticalAlign=middle;resizable=0;points=[];" parent="iIZ1Hgpg9Qb0fUDsrSR7-145" vertex="1" connectable="0">
          <mxGeometry x="-0.0956" y="5" relative="1" as="geometry">
            <mxPoint x="1" as="offset" />
          </mxGeometry>
        </mxCell>
        <mxCell id="iIZ1Hgpg9Qb0fUDsrSR7-147" value="&lt;div&gt;&lt;span style=&quot;text-wrap: nowrap;&quot;&gt;Instant Street&amp;nbsp;&lt;/span&gt;&lt;/div&gt;&lt;div&gt;&lt;span style=&quot;text-wrap: nowrap;&quot;&gt;16&lt;/span&gt;&lt;br&gt;&lt;/div&gt;" style="strokeWidth=2;html=1;shape=mxgraph.flowchart.start_2;whiteSpace=wrap;strokeColor=#3333FF;aspect=fixed;" parent="1" vertex="1">
          <mxGeometry x="890" y="90" width="80" height="80" as="geometry" />
        </mxCell>
        <mxCell id="iIZ1Hgpg9Qb0fUDsrSR7-150" style="edgeStyle=orthogonalEdgeStyle;rounded=0;orthogonalLoop=1;jettySize=auto;html=1;exitX=0.855;exitY=0.145;exitDx=0;exitDy=0;exitPerimeter=0;entryX=0.145;entryY=0.855;entryDx=0;entryDy=0;entryPerimeter=0;" parent="1" source="iIZ1Hgpg9Qb0fUDsrSR7-147" target="iIZ1Hgpg9Qb0fUDsrSR7-137" edge="1">
          <mxGeometry relative="1" as="geometry" />
        </mxCell>
        <mxCell id="iIZ1Hgpg9Qb0fUDsrSR7-151" value="city" style="edgeLabel;html=1;align=center;verticalAlign=middle;resizable=0;points=[];" parent="iIZ1Hgpg9Qb0fUDsrSR7-150" vertex="1" connectable="0">
          <mxGeometry x="0.337" y="5" relative="1" as="geometry">
            <mxPoint as="offset" />
          </mxGeometry>
        </mxCell>
        <mxCell id="iIZ1Hgpg9Qb0fUDsrSR7-154" value="" style="group" parent="1" vertex="1" connectable="0">
          <mxGeometry x="1330" y="130" width="95" height="90" as="geometry" />
        </mxCell>
        <mxCell id="iIZ1Hgpg9Qb0fUDsrSR7-153" value="" style="strokeWidth=2;html=1;shape=mxgraph.flowchart.start_2;whiteSpace=wrap;strokeColor=#3333FF;" parent="iIZ1Hgpg9Qb0fUDsrSR7-154" vertex="1">
          <mxGeometry width="95" height="90" as="geometry" />
        </mxCell>
        <mxCell id="iIZ1Hgpg9Qb0fUDsrSR7-152" value="" style="shape=image;verticalLabelPosition=bottom;labelBackgroundColor=default;verticalAlign=top;aspect=fixed;imageAspect=0;image=data:image/png, iVBORw0KGgoAAAANSUhEUgAAALMAAADICAYAAACj8dDxAAAZ3UlEQVR4Xu2decw/R13HP16AVhSRQ1uMlSBHiRHFiLGmpRExRlArCpq21v4hnhgVQYHIVZUg0aCEeCA1oKCCsRLwgiAWT0TRCBgvoLUgKkgRBMT7eT/7nWdn3/OZ2bl2Z/f5zit55/f8dmY+89nZz87OzHcPkePiow//XnuiD53o/w76rxP9z4n+19qGv7ENafb2H5a6GJ9eKlN/7Dp9+m/r77ec6C7SOde8TtwgqCkE1Dtl4CMO/87xx+LaqS2cEP8hnXMBH9w1dYm4cJ411dk5fEDNZfs9J/qyQ56Pkvje9COtvx8jgy0MQ7ieVBm/HiEDGHbE+gSwD4ZfkcEWemW7jhR7nQ1iDiSGAXYgLsUzxQ1Un550KLMkl8pY3+0orbMz7GBuAU/g1uaBMtb98ZTW2Rmtg9kegrS4zH+WjPXfidI6O6N1MNs98xrDHObeMtZ/V0rr7IzWwWzqbxXMny5j/RdRWmdH3CY9mD9Npj5AnZ3AB84IY9cWtA7mC8Vtix7YG2durfdYg/lTxG0LFsb1nY3AB8cImAnYsQbz3WSs/zMO27idIPwA1NkAHMA2xx7MuOnI1I+VDaYH88boweznzjLWf39KAz2YG2AHRUjMsQfzJ8pY/+dQGuD20/Tis9ydKnAD+8QcezDfUcb6P5/SALefppec5e5UgRvYJ8aschxrMF8gY/246Ygxaf8pw4MKuPcZf3/YSrvxLHenCqZhtR8/7J+MGRPMrZafWgfzx8pY/xWUBkzaj3CCjGmv4IROGT2Y87i9jPU/lNKASftxTpAx7bc5oVNGTDBrAXvswYyb/E39D6M0YNJ+hhNkTHsNJ3TKiAlmLe3Ygxl1mvqvpDRg0l7ACTKm/T4ndMqICWY8JsQcezADU/8jOUHGtF/mBBnT8DBwpyIxwYxZOGMew+/BLHIVJ8iY9jJOkDHtDZzQKaMHcz6m/us4QcY0bZJn0t7ICZ0yejDnY+p/NCfImHYTJ8iY9jec0CkjJpi1MbMJZqgFWwrm7+AEGdO0cbFJeysndMrowZyPqf+7OEHGtL/gBBnT/oETOmXkBrP9IpQWbCmYH88JMqZpQwmT9k+c0CnDBKx2j0VonbkH81i/9tIZk3YzbQcm7d2c0CmjB3M+pv6ncYKMae/gBBnT3scJnTJ6MOdj6tdew2vSzBtMbUwa7qbrVCQmmLW0Hsxj/c/iBBnT/pkTZEzTOolOAaGADaX1YB7rfzYnyJimjYtt3zsVCd1kHwpm/JDS8oBsKZifywkypuEVv0wP5oUIBXPoZqIezGP9ods838sJ0oN5MUIBG0rrwTzWfwMnyJj2ftqON5b2YF6IUMCG0nowj/W/kBNkTPsAbe/BvCChgDVpWqP3YB7r/0XabgcsL7/hsxI9mBcidPdbKJj7asZYP751YmMHM57GtrEft2rVdueWHsz5mPr5Bnw7mHktuQfzguQGc79rbqz/12m7HczcrrnBjGPRaj93Qw/mfEz9/DQJ/PEFbM6Y2b4Ktvh+y24IBWUomENpa2DX3zqYf4e21wxmez9b7+/mCY19QwEbSluDD0r7g2vqfy1trxXMeKWXnTe23NGy12DGz8Sm/tbB/Ee0PRSwoTSbuc9MQD92lvuc8SIJN46PUDCHhiDmvg0tbQ1wa6Wpv3Uw/yltDwVsKM3GzhOS9l6O3RPTQBp7DeZbZKy/1aTI1M/P+YUCNpRmsNNj1Opkrs5jxd05KJbcYM6pqyZ4tq5l/cDU/2baHgrYUBqwj0eKvheF9w7vlK0YQj9L1whm9Bo4gCGw9prau+IFKjH1M6gH9TH4/jXe7MloeQ2mfn5oNbSWPBfMdlqqdg3vDAuTtDlqBfN9ZXyRtraclCLTO/2qDGiB/icy5tdAQCFAcdca8tjDolwZG3iq+nbW9rfKlJJgBna7p2p38NJPSHwLIlNjmLGG4Kf9ACjeoGnSbJCv9GRK1a0ypTSYAdeRIu3k3yzs/Jw+dyimslQwoxfj8R+uAlgf/hcZbo20rwpQbI8E2++y/v/Xh22cj2UHOep6jQxvtr/mRF9+okec6HtkuHHIvsrM2eaHVkPBzB1RiLl6Q9oFsQecxXd2GUqC2TT29x+2zY2NUzHjVSx98f7M6RmnJevP9LGPd5ehDtM+/Jzfxxy2G9mkBDPAA7G8bzHCcd007HCs+DJoEwrYUFpLeP9a+ojg5BOmZjADexkyVZvE/lRXiubGzKGADaV1/NQOZnCbuMc2RvdA4S3Bk4YUzRH6WbpWMGNCgn3AQbbB/7F97QmLb3mOyR02LRHMgI9trHL3YxFyZufaLZ0aoWAOjacZ02A/KWOZVL/t/Oa2ypigC3GpjDfs5M437LK/IQOhAFkqmEFqm0IxS7Sr8IfiOjcnNHwsoZ+l54IZqxElAZIi4yfQenIECT77y+WWFtqIVzOWDGaQ0+a8Fr469hMLKeIJSYjUYOa6QoLt2IZHvtSlKHA/ZXtIvFyIX+9eJcNqz8tP9HsneruVDp9SesObZPqNQMimRjDnxkVT2JkYpRIqGxuI0J8fymi9Zg7mMo7vS3NdczInBYYYIDQkSMWMt7FeHts+NjWC2cD1xKjW8UmCnYgRFv1Tscszvh4JwcLvg1iLvxI9iNDjXmXlWwtzFWR/fO3KvWoJOFm5rhitCp+9scohVF677G8JnGy/JGnDqqV5gLhDGZuawQz4+MRo1fby9Ygh5RKygW2bmQnvDHs51aZ2MAOOhTnFrnQV8zhxK59TCZodTGCgrzjRJ5zoLgdddNA9T3QfGSZfWEFAb/Sggy476EsOwnelzX0PEL5minshvuUg3I8NPfmgZx70nINukOGTvXiiApO0V8hwTwWELzlBbzrobQfh3g/8DIyhEIS3CmF5DsIKjFmFMZNO7Qq0lmrBduf0/KHYsnClc/rioVg2bK9rXdXiEnFtz2lR3iJuhSHVGAKwza51VZPU4em/D8Xqk/OTdQ0eLsNQAEOCh8gwRDBDBgwfIAwnIAwvIDPcwNDjrjIMRe4g+pMaewTjWluYMNnCsbKFpTpNnM/ItlUTHo/HqOay5Rmp4zb8MtjpMC8WN1ZCqj4ZTF2KqzG86JxfUocbVXtnNj6nJr/idHZDqyFrcq+cchNR53jRfiUNqUoHyUbn1OnEwrEzpyJyZp/HjJn9f5GEnwvEw6j4oQUrLqDqmHBHcLvMqah3ZmNzOqaDgn3FUh8mM6mXzJDMTf9FB24nrDp2ZkNzOgZ4n5cUThT+5sh5g/d5TtmwoZDOa0+CHxfwrjbe37WF3j/0fpG9kjqUzYKNzOk8wvu4JZ2nzoP3bU7JsIGQzhu8f7lK/XEgR7V/cm7Bor0zvqfMBkI6D2AykjqRMxNe3g6Z9XbeDvm2QxfLcAsqb5/T3ntq3p+QtO99e+HCIf3gocxeSflRCG/X5J6Q80D2z/mcBhn4iQ+jT7LyAE73Sfvg+164Xtz9CSkaLhhS6XsjWsP7w0JgfsFZ7imc18juJTkNsvHdwMUnDf4fc8XEFWGPvXTqMl0U+M4yFwxpr+DpDt4X1gPPcrtwXiNea+d0yCZ0ZdBAoD5P3LysPcL7EBLaYBZfT6Fprz3A3D7OcbO4ZXzlOI+WLzWgDfiaE+dn7YmUiWDUnZlcKKS9MXcps18WHoLLQXjFgAbngzQ+T9x80NzrGbBPoVUTjMv3BPsfUrAzfb24BXx67aHMXrhc3H0wQjAEG8aCyxr54HyhvD8nbl6Ihy4+uFyOjdbgZT3su0/8gfsJvtm1pj3xXHH9N8KT0LFw2Zi24Lxz+bVeNrZ3nVte3Avst0/edpm7BLP2wgXi+m6EO9dS4PIx7cD558r4jsM325lm4LK2Yq9ALWGfQ+JVn1Pw4CdnDGkP4PMP7LeR2ggBuDz06kkOHS4T03a+CWFKIF4tbnmjrQ852F8Wrj74ZowXLhDS5YcyW4f9NkrlOnFtxNrhMiXlYssa7HdRs7bMN8jUV7P6hBf7RJ2Ic8tVtqIMNoZ9Nkrp3YDvsh8Llysty2/3j4FtQFt+vA0/xJmnslOvoKfwzvq05UYwsM9GOSch2zCKhcullP16ccvmPnrPdlJ92Q04E3gnQ9oy7GuJz76xa0pvwWVTfdFWN544yRHHreLagR5tZzoP4LO3vJM+5Vzm1uJJ4vprKxUuD33qJMc8XD7VD98JlQLe/sTlbe35/hpn2Gh/TXROW91x30Fn4TLtNICCz14qXD7HhrZ2fPkkhx+tLGsPQ0dgjtsVMvqNf//yLIcMH0mPfXXqVonx3darhmJeNHsXTnLEwTagVFInob78IS32ksIC7iWDbzEnpBczUcJ3m9nYFkkZJrHwckVGu+El6sYWBbYD5cA2oO+c5Bj8vuWQFtJVyjYo5oq1JuyfT7mT4k3COweZb1P70m0hUO0bejgdur+VngLbgXLQhj3mBEMQ4krD6SzkNx2VNrGEtoTPR01bOxGz4J2CtDMVb7bnfCnKhe2U2NIObswlWKtTOzm0fC3Rhno+nQt4pyDferLvAMYoF7ZTYitnLPy3pyV1niJu/i1NBvFubvbPp933zH8m7k5Bc+QERYxdDbaRage++u51Dul3JQ6tt8eL2bcC++YT5nenXbnZIdycfr2MUe7r4bYC7xCU6jOXjxHaCx/TAXNLlVwWmuNiGfLFDiFs3SbpvRTb2ErvrE3EfTr1mTdqMgGf2khL8oXi+gnlgP3Cfc1sK0XmXnAEEx5nwqcnAOeDwGfL8GUqsy0ncG3dKPnHh21BqZ3CEqQOC3c7yNb8TvmZWUO75O5FJfv+UHHt/eskRzvYr5Cie4TcddalYP9Od6aAlEtaK5kTGHAahoclsD1TT2u0TkvT6VMnSZk3AvsGlfRMQLvZCkMZA+xjrRnbY9usVKajAbx/nLe0s9Em01sYasQO/06XY3ljSFuB/arhmxagHEA2ZuL3dBnypjw/ybLrvkwGQnUDrb4SfOPT1rA/ITkbQtoCSzU6j5dzezoMV+wVDvbT9rWk53u/uHbnToA52J7tayvYn5CcDSFtgReJ61fuLN6gnSD/NsmRD9ut2Y5s9+ppcjLa1am0bUthf0JyNoS0BdinGn5pk7+SXtOG7dbwF2g+17DN9i6dJq8O+xOSsyGkLcA+1fDr3eLaLL1kG9huDX8NvBKVOzQyLHWClMC+hORsCGkLsE9XTpOzYJvajUq5sO2a7ch2odKTkIcaNdsiB96/kJwNIbXmUbKMT3wAa9kFbLembbxqt7btt4trs9aQKwf2JSRnQ0itYX9q+KRN/t4xyVEG267hsw3bvvM0ORltqNES9iUkZ0NIrVmiB9UOnlnrrQHbruGzQfuh57cmOdLR7ii8ZpJjXdiXkJz1VZ+2cCfVUj6x3Zqw7a3b107u0ollCTzJ9enUx9jMUGvYnxo+4SHV2jZt2PYe7GsdXCvYD5+ibwE1ag37U8OnbxfXZumKgA3bruGzDduucQ8NB3OtK2AOvH8hORtCmrsRfUm0y9/NdoZMbhLXbk3Ydm37SwQe+9tqmKGN30OSNygbfWqJturQtY5arjWzLz7djMyfqST4dHsUaETqWdpVT3sI5gcf8jsJPuEmn1b0YG6nVsGMD6ayLz6dghchckJIrejDjHZqFczsR0hnv1Jygk81Jhe5LDUBfKW4dmvCtmvb5wlgjcka+1vDZg5Zy8baUws+tYR9qeEPPnzDNve0NMe/iqZ8PcsHnyCtOjFuN58m/nFiSDUPdCrsC1QK7mWobdOGbe/BPgdzDZupaFfikM74biXRp5awL7V6DLZbE7a9dftaENVq51TYD59+whQwcAaf8KH4VmhjqFK0g4dbK2vBtmv4bNAmxW+e5EhHWzX6vkmOdTAPCsfIgTOE1Ar2o4YvWkB8cJKjDLZdw2cbtn3vaXIyWnu0gH0IyXlOkTOE1IonyDK+8CSqll3Admvavp3Ut619u7rFPIl9CMmBM4TUEvbl2mlyFmyz5roq267ZftoLUkoDj0/smm2RAu9XSA4/Km4mn957KNMC9kXdmUTwDmO2WRoUBrZbw18D2y0NPG3+UNPfWN4prg8+/dqhjANn9KnGbYa5LLFspB3EWs+9sd0a/hrYbg3bbK/FdwK1ib5PXjhjSM6geyV+WlxfStFm8DXsArZZyy5gu4+dJifD9qC1j7PWsYTkhTOG1PLjluxLcKci4R6/1k+47GcNX4H2kfdSeLxcw2Yqvo7FpyCcOaRWsB81fFni3W2AbdbwFWi3IJTg6xHXhusPKYhvh3yqNa5Mhf2AalwO2SZuQZzD1Iu2eLZMy/vGfvZVAC/1frwMpJw8ms0S/l5cm2uT2ivPHnMuENLXHMqsjXbSlf7kqtn0BchTZEznMjVkel08bOvrMLgMPhldAtuD1gbxxD6EFAUX8ql0KagEbXznO/Cx+C7dHxa9vjUF335IBjgNKuGR4tp72yTHOqS0cRRaDxVSK3Bg2Zf3THKk8xJxbe5BpZ2KFkQtHl5mH0KaHWIYuOCcWsF+QLm9s/Z2oBJh2KMFCYRetuYQ5Y2SNt5m2F7pkC0H9mFO0dxD3MIhteJl4vqS4w+XjxUOOoLyPjKgnUhcBrJBD2MC8RoZ7XKZGOEkSe1RtbpSbdSAfQgJ8ZkEGwjpikOZtfENiWJ7KS4Xo9RfxLg8FIO5jL5F0ntxXBFi2uBiccv6Jr1L8rXi+hFSMvg4IxsJqRXa+vDcZVLrjeaUC9spseUbtoSkXS2AbxmsBexDSP94KJOEb2d9umwo1gT2BbpokiN9f1h4v0gObAfKwXcVipE2MeY8Rmtztbg+hOQ7OWdJ7cFaod1QDplLNW/XZF9effZyYBu5drRe+Rdk8PVnlTRNXyUjnAZFrxAsQMxQau6KG+QScQ2G1BLtYEO+7Ua+OwA5H/S0SY442AaUiu+qwsH3HCstVVmX7wUIdaD3tPJlwQZDajF5sGF/5vSAoZiK77KeCpevZQP3/PoIBYSm1seNwWqF1gkV8yBxjYb0wqFYE2J/Dn2YKTCDdul78iTHPFweSsHXK8fAZXzKHoeugPHxXpyQC+/8nFrCvrBS8I2dY5a9DFw21QcuC6X+4hfqqf/Oyrcm1YIzlQvEbYSQWsP+lPjFNqCUYOKyKX7cXdyyKeUN2oOvubZqgHtdWtbvNIImLPBvAV+PCvGkaQ7f2PmOdqYAXA6KhctB95vkiINtQEUrAwX4jk3K1a6Yl4rrQOuGmYP9zG24bxXXBhQDl4ktpy23pU7U7iSuDaPUk7oW2jzE6HVWvsVhR1Iuty3ARI8bzCgVbXYdY4fzx5QBXAZKOQmfJW55oxb3XgDts86aHmcKLI2p8CZO2ChPFbexjD55zBYFl4fm4Py5ZWLKGbicrVY9sm944dMqHWVKg8ChLQxBtC9K2YrlRnHLzrUH552rT1t5iG1D9LhaeaOUnr02fFWfU+qQajFulalj+H9rsBDPDZbTcFx2rjznhXxcKm5eKHYdmMvZajW0AB8Q1585tTzxToEDvrFl7AFZGvbL1lVWvhBcDnr9JMcI54M0fKsmvvyGUDmjlm3v+9EnJAR/U54orlOsLYATLnQpjvHz4eKWgZ5hZzrAeXz2OQ80N7x4tbhlbH1ozNqEmBNNU1Nix0NzB2dN2DfWnK+c34h7QU6HGO1BWsg3Fv84cfOyrj/L3Y65TkNTs8/z8XsiYrUl2DcWTlRMIDV8Qyp7vMdpkI0vkJnY1QDY850EaxLbwdmq+V7sLHKcrvlm+lJSL4V2oIbGgwbePpcG8cnD6T59mynQmC8V17c5hSbRq5EaDEZbhH30CZdPvAbXwOkmjy8N3KBst9N525y20Bsb2LcY8fCsGW8S17kYbWYHiJyxnibfMKSmttSGoStVSL+JwlsiNwC2dDCYNYIxV1sjN5DnJtrNYEdj1XyBPAAO0svF9Xlt4aDjltAtkhvI0KZhZ2O15R7ahv1eUpgU3SrbJnaVRdPmeZS4Tseq5U+uOWhv8S+RGdbgZ+0tTeh8lLzS7CGyE9jxFO3hIPowVxf8qPF8ce9RMcLnycw7mcGWh1k+clexoFXuiKtJzvqzUWf78DFL0S7hnUhR6jvdOuvw1eIeqxTtmtLlrc520D6iGavdDS00Sma70GbXIY+MkmEjtOe5kAPvXKo67eBjkapzR2kPDa32oGPnlK8U9xikao8rNdGUXq4w9trLDyx7Be1bepw2cRfcGvju4U1R6ad1OzpXitvWqTq6eQ43QI7QaL2XrgOGA6W9sdFR8j5xGyJXnXy4LXPle9f10XCFuI2SKzzh0IkH763jNszV10nnDG6cEl0nnRC+93PkqqPAjVQirHrcQTpM6S+ytjBnOVc/htSGG6xUmNQ0e3x9Q9Sa3NnqRMINV0vHSs1g7mTAjVhLuDxeKOcPXPLvxhsP4GNE3A456sOKQrhBa+i8LCPhaY+nyrTn9a3qlPTOnYrUXJOGrhUXBMYreeNG+QPxPxHv+wUO+8x5Y9RZiJLexZb2vKH2pn18pHwLPEZc30LyDQc4n0/n4v7jPYCvX5UsMfl6Ls6nyZxM33QoA0rvDLN/kv8BGezXuH9Fg/NoavZZs2PGHPhU/RQKK3C+VOEEiw1C5Cs5IWPkg/MZ/bydqdOGB4t7YEIqvQTvRT74JPrGSWpnEzxd3AOqScP3vZK9ywfSXiD+E7uzEUIf5MHXSjV8KwN7V+ccEXNwazzStVXt5s1BnThwKcWLuH0/lFwibhCcB+Fq05+bPDJ4QrRnIYDvK+XLhZ0dUvLOtC3pwdIfIesQt8j2J4MYLvm+O9jpqJhLNT5TgCCq9VN6rMxJ9TwZ6MtonarYAfWEE71LxuBL+VUPJ4b9a+HNJ7paBvp4N4P/B53Vfh+ag1S7AAAAAElFTkSuQmCC;" parent="iIZ1Hgpg9Qb0fUDsrSR7-154" vertex="1">
          <mxGeometry x="9.579999999999927" y="2.6399999999999864" width="75.83" height="84.72" as="geometry" />
        </mxCell>
        <mxCell id="iIZ1Hgpg9Qb0fUDsrSR7-155" style="edgeStyle=orthogonalEdgeStyle;rounded=0;orthogonalLoop=1;jettySize=auto;html=1;entryX=-0.011;entryY=0.64;entryDx=0;entryDy=0;entryPerimeter=0;" parent="1" source="iIZ1Hgpg9Qb0fUDsrSR7-130" target="iIZ1Hgpg9Qb0fUDsrSR7-153" edge="1">
          <mxGeometry relative="1" as="geometry" />
        </mxCell>
        <mxCell id="iIZ1Hgpg9Qb0fUDsrSR7-156" value="logo" style="edgeLabel;html=1;align=center;verticalAlign=middle;resizable=0;points=[];" parent="iIZ1Hgpg9Qb0fUDsrSR7-155" vertex="1" connectable="0">
          <mxGeometry x="0.2557" y="-1" relative="1" as="geometry">
            <mxPoint as="offset" />
          </mxGeometry>
        </mxCell>
        <mxCell id="iIZ1Hgpg9Qb0fUDsrSR7-157" value="MediaObject" style="ellipse;whiteSpace=wrap;html=1;aspect=fixed;" parent="1" vertex="1">
          <mxGeometry x="1390" y="30" width="60" height="60" as="geometry" />
        </mxCell>
        <mxCell id="iIZ1Hgpg9Qb0fUDsrSR7-158" style="edgeStyle=orthogonalEdgeStyle;rounded=0;orthogonalLoop=1;jettySize=auto;html=1;exitX=0.75;exitY=0;exitDx=0;exitDy=0;entryX=0.5;entryY=1;entryDx=0;entryDy=0;" parent="1" source="iIZ1Hgpg9Qb0fUDsrSR7-152" target="iIZ1Hgpg9Qb0fUDsrSR7-157" edge="1">
          <mxGeometry relative="1" as="geometry" />
        </mxCell>
        <mxCell id="iIZ1Hgpg9Qb0fUDsrSR7-159" value="is" style="edgeLabel;html=1;align=center;verticalAlign=middle;resizable=0;points=[];" parent="iIZ1Hgpg9Qb0fUDsrSR7-158" vertex="1" connectable="0">
          <mxGeometry x="0.2191" y="3" relative="1" as="geometry">
            <mxPoint y="1" as="offset" />
          </mxGeometry>
        </mxCell>
        <mxCell id="iIZ1Hgpg9Qb0fUDsrSR7-160" value="WebResourcc" style="ellipse;whiteSpace=wrap;html=1;aspect=fixed;" parent="1" vertex="1">
          <mxGeometry x="1660" y="60" width="60" height="60" as="geometry" />
        </mxCell>
        <mxCell id="iIZ1Hgpg9Qb0fUDsrSR7-162" style="edgeStyle=orthogonalEdgeStyle;rounded=0;orthogonalLoop=1;jettySize=auto;html=1;exitX=0.855;exitY=0.145;exitDx=0;exitDy=0;exitPerimeter=0;" parent="1" source="iIZ1Hgpg9Qb0fUDsrSR7-161" target="iIZ1Hgpg9Qb0fUDsrSR7-160" edge="1">
          <mxGeometry relative="1" as="geometry" />
        </mxCell>
        <mxCell id="iIZ1Hgpg9Qb0fUDsrSR7-163" value="is" style="edgeLabel;html=1;align=center;verticalAlign=middle;resizable=0;points=[];" parent="iIZ1Hgpg9Qb0fUDsrSR7-162" vertex="1" connectable="0">
          <mxGeometry x="-0.1942" y="-4" relative="1" as="geometry">
            <mxPoint as="offset" />
          </mxGeometry>
        </mxCell>
        <mxCell id="iIZ1Hgpg9Qb0fUDsrSR7-161" value="&lt;div&gt;&lt;span style=&quot;text-wrap: nowrap;&quot;&gt;https://learningprovider.edu&lt;/span&gt;&lt;br&gt;&lt;/div&gt;" style="strokeWidth=2;html=1;shape=mxgraph.flowchart.start_2;whiteSpace=wrap;strokeColor=#3333FF;" parent="1" vertex="1">
          <mxGeometry x="1510" y="215" width="95" height="90" as="geometry" />
        </mxCell>
        <mxCell id="iIZ1Hgpg9Qb0fUDsrSR7-168" style="edgeStyle=orthogonalEdgeStyle;rounded=0;orthogonalLoop=1;jettySize=auto;html=1;" parent="1" source="iIZ1Hgpg9Qb0fUDsrSR7-164" target="iIZ1Hgpg9Qb0fUDsrSR7-167" edge="1">
          <mxGeometry relative="1" as="geometry" />
        </mxCell>
        <mxCell id="iIZ1Hgpg9Qb0fUDsrSR7-169" value="is" style="edgeLabel;html=1;align=center;verticalAlign=middle;resizable=0;points=[];" parent="iIZ1Hgpg9Qb0fUDsrSR7-168" vertex="1" connectable="0">
          <mxGeometry x="0.0504" y="-3" relative="1" as="geometry">
            <mxPoint as="offset" />
          </mxGeometry>
        </mxCell>
        <mxCell id="iIZ1Hgpg9Qb0fUDsrSR7-164" value="&lt;span style=&quot;text-wrap: nowrap;&quot;&gt;Research Alliance&lt;/span&gt;" style="strokeWidth=2;html=1;shape=mxgraph.flowchart.start_2;whiteSpace=wrap;strokeColor=#3333FF;" parent="1" vertex="1">
          <mxGeometry x="1470" y="340" width="90" height="90" as="geometry" />
        </mxCell>
        <mxCell id="iIZ1Hgpg9Qb0fUDsrSR7-167" value="Group" style="ellipse;whiteSpace=wrap;html=1;aspect=fixed;" parent="1" vertex="1">
          <mxGeometry x="1680" y="355" width="60" height="60" as="geometry" />
        </mxCell>
        <mxCell id="iIZ1Hgpg9Qb0fUDsrSR7-170" style="edgeStyle=orthogonalEdgeStyle;rounded=0;orthogonalLoop=1;jettySize=auto;html=1;entryX=0;entryY=0.5;entryDx=0;entryDy=0;entryPerimeter=0;" parent="1" source="iIZ1Hgpg9Qb0fUDsrSR7-130" target="iIZ1Hgpg9Qb0fUDsrSR7-164" edge="1">
          <mxGeometry relative="1" as="geometry">
            <Array as="points">
              <mxPoint x="1279" y="310" />
              <mxPoint x="1279" y="385" />
            </Array>
          </mxGeometry>
        </mxCell>
        <mxCell id="iIZ1Hgpg9Qb0fUDsrSR7-171" value="group" style="edgeLabel;html=1;align=center;verticalAlign=middle;resizable=0;points=[];" parent="iIZ1Hgpg9Qb0fUDsrSR7-170" vertex="1" connectable="0">
          <mxGeometry x="0.0172" y="-1" relative="1" as="geometry">
            <mxPoint as="offset" />
          </mxGeometry>
        </mxCell>
        <mxCell id="iIZ1Hgpg9Qb0fUDsrSR7-172" style="edgeStyle=orthogonalEdgeStyle;rounded=0;orthogonalLoop=1;jettySize=auto;html=1;entryX=1;entryY=0.5;entryDx=0;entryDy=0;entryPerimeter=0;" parent="1" source="iIZ1Hgpg9Qb0fUDsrSR7-130" target="iIZ1Hgpg9Qb0fUDsrSR7-59" edge="1">
          <mxGeometry relative="1" as="geometry" />
        </mxCell>
        <mxCell id="iIZ1Hgpg9Qb0fUDsrSR7-173" value="awards" style="edgeLabel;html=1;align=center;verticalAlign=middle;resizable=0;points=[];" parent="iIZ1Hgpg9Qb0fUDsrSR7-172" vertex="1" connectable="0">
          <mxGeometry x="-0.0168" y="-1" relative="1" as="geometry">
            <mxPoint y="-1" as="offset" />
          </mxGeometry>
        </mxCell>
        <mxCell id="iIZ1Hgpg9Qb0fUDsrSR7-174" style="edgeStyle=orthogonalEdgeStyle;rounded=0;orthogonalLoop=1;jettySize=auto;html=1;exitX=0.855;exitY=0.855;exitDx=0;exitDy=0;exitPerimeter=0;entryX=0.114;entryY=0.275;entryDx=0;entryDy=0;entryPerimeter=0;" parent="1" source="iIZ1Hgpg9Qb0fUDsrSR7-12" target="iIZ1Hgpg9Qb0fUDsrSR7-55" edge="1">
          <mxGeometry relative="1" as="geometry">
            <Array as="points">
              <mxPoint x="397" y="320" />
              <mxPoint x="680" y="320" />
            </Array>
          </mxGeometry>
        </mxCell>
        <mxCell id="iIZ1Hgpg9Qb0fUDsrSR7-175" value="claims" style="edgeLabel;html=1;align=center;verticalAlign=middle;resizable=0;points=[];" parent="iIZ1Hgpg9Qb0fUDsrSR7-174" vertex="1" connectable="0">
          <mxGeometry x="0.0618" y="5" relative="1" as="geometry">
            <mxPoint as="offset" />
          </mxGeometry>
        </mxCell>
      </root>
    </mxGraphModel>
  </diagram>
</mxfile>
